<svg id="ambulance" xmlns="http://www.w3.org/2000/svg" viewBox="0 0 24 24" class="icon line" width="48" height="48"><path id="primary" d="M4.84,17H4a1,1,0,0,1-1-1V6A1,1,0,0,1,4,5H16.52a1,1,0,0,1,.78.38l3.48,4.35a1,1,0,0,1,.22.62V16a1,1,0,0,1-1,1h-.83" style="fill: none; stroke: rgb(63, 134, 209); stroke-linecap: round; stroke-linejoin: round; stroke-width: 1.5;"></path><path id="primary-2" data-name="primary" d="M14.89,17H9.12M9,17a2,2,0,1,1-2-2A2,2,0,0,1,9,17Zm10,0a2,2,0,1,1-2-2A2,2,0,0,1,19,17Zm-9-6h4M12,9v4" style="fill: none; stroke: rgb(63, 134, 209); stroke-linecap: round; stroke-linejoin: round; stroke-width: 1.5;"></path></svg>