<svg xmlns="http://www.w3.org/2000/svg" height="300px" width="300px" fill="#9b171c" viewBox="0 0 64 64" x="0px" y="0px"><title>ERROR-files and folders-archive-document-file-interface</title><g data-name="Layer 7"><rect x="7" y="35" width="2" height="2"/><polygon points="9 55.59 9 51 4.41 51 9 55.59"/><path d="M41,34.74V3H3V49h7a1,1,0,0,1,1,1v7H36a15,15,0,0,1,5-22.26ZM11,38a1,1,0,0,1-1,1H6a1,1,0,0,1-1-1V34a1,1,0,0,1,1-1h4a1,1,0,0,1,1,1Zm0-8a1,1,0,0,1-1,1H6a1,1,0,0,1-1-1V8A1,1,0,0,1,6,7h4a1,1,0,0,1,1,1Z"/><rect x="7" y="9" width="2" height="20"/><path d="M48.71,44.71a1,1,0,0,1-1.42,0L44,41.41,41.41,44l3.3,3.29a1,1,0,0,1,0,1.42L41.41,52,44,54.59l3.29-3.3a1,1,0,0,1,1.42,0L52,54.59,54.59,52l-3.3-3.29a1,1,0,0,1,0-1.42L54.59,44,52,41.41Z"/><path d="M48,35A13,13,0,1,0,61,48,13,13,0,0,0,48,35Zm8.71,16.29a1,1,0,0,1,0,1.42l-4,4a1,1,0,0,1-1.42,0L48,53.41l-3.29,3.3a1,1,0,0,1-1.42,0l-4-4a1,1,0,0,1,0-1.42L42.59,48l-3.3-3.29a1,1,0,0,1,0-1.42l4-4a1,1,0,0,1,1.42,0L48,42.59l3.29-3.3a1,1,0,0,1,1.42,0l4,4a1,1,0,0,1,0,1.42L53.41,48Z"/></g></svg>